# xmcd
#
# Track frame offsets: 
#        150
#        13182
#        21908
#        26961
#        34497
#        41125
#
# Disc length: 630 seconds
#
# Revision: 0
# Processed by: cddbd v1.5.2PL0 Copyright (c) Steve Scherf et al.
# Submitted via: ExactAudioCopy v0.99pb5
#
DISCID=50027406
DTITLE=Priapus - Air Loom
DYEAR=2011
DGENRE=Grindcore
TTITLE0=Pushing Up The Quicksilver
TTITLE1=Where Is Everybody?
TTITLE2=Repeaters
TTITLE3=Killing The Dream
TTITLE4=He Is The Talisman
TTITLE5=Apoplexy Working With The Nutmeg Grater
EXTD=
EXTT0=
EXTT1=
EXTT2=
EXTT3=
EXTT4=
EXTT5=
PLAYORDER=
